<svg width="138" height="138" viewBox="0 0 138 138" fill="none" xmlns="http://www.w3.org/2000/svg">
<g filter="url(#filter0_d_229_23)">
<path d="M1 68C1 32.1015 30.1015 3 66 3C101.899 3 131 32.1015 131 68C131 103.899 101.899 133 66 133C30.1015 133 1 103.899 1 68Z" fill="#FFE5D2"/>
<path d="M3.5 68C3.5 33.4822 31.4822 5.5 66 5.5C100.518 5.5 128.5 33.4822 128.5 68C128.5 102.518 100.518 130.5 66 130.5C31.4822 130.5 3.5 102.518 3.5 68Z" stroke="#652807" stroke-width="5"/>
</g>
<path d="M63.2693 40.2467C63.8277 42.7687 63.2414 45.2815 61.7338 46.7617C61.1568 47.3282 60.4217 47.7029 59.398 47.9496C57.4996 48.4247 56.5131 48.8542 55.629 49.6217C54.168 50.8736 53.4421 52.299 53.2281 54.3458L53.1629 54.9397L52.6139 55.1499C50.5572 55.9357 48.7798 57.6901 48.0167 59.6729C47.7747 60.3034 47.5049 61.5827 47.5049 62.0761C47.5049 62.2588 47.449 62.4142 47.356 62.4599C47.2722 62.5056 46.9465 62.798 46.6208 63.1086C45.9321 63.7848 45.4575 64.598 45.169 65.6306C45.0015 66.2611 44.9736 66.5078 45.0201 67.4124C45.0946 68.8287 45.4296 69.8064 46.2392 70.9212C47.4211 72.5476 49.5522 73.7172 51.3483 73.7172C51.9625 73.7172 52.0927 73.6807 52.8931 73.2878C53.6841 72.8949 53.8423 72.8492 54.382 72.8583C54.9404 72.8583 55.08 72.904 55.8338 73.3152C56.5969 73.7172 56.7272 73.7629 57.2762 73.7629C57.7787 73.7629 57.9835 73.7172 58.3929 73.4979C59.5934 72.8674 59.6306 72.8583 60.2541 72.8583C60.8125 72.8583 60.9428 72.8949 61.6966 73.306C62.4597 73.7081 62.59 73.7538 63.139 73.7538C63.5764 73.7538 63.8556 73.6989 64.1162 73.571C64.3209 73.4705 64.7211 73.2603 65.0002 73.1233C65.4097 72.9131 65.633 72.8583 66.117 72.8583C66.666 72.8583 66.8056 72.8949 67.5966 73.306C68.369 73.7081 68.5365 73.7629 69.0391 73.7629C69.5323 73.7629 69.7277 73.7081 70.528 73.306C71.3563 72.904 71.5238 72.8492 72.0263 72.8583C72.5288 72.8583 72.6963 72.9131 73.4315 73.306C74.1481 73.6898 74.3249 73.7538 74.8181 73.7538C75.3113 73.7629 75.4881 73.7081 76.2885 73.3152C77.0981 72.9131 77.2749 72.8583 77.7774 72.8583C78.3544 72.8674 78.4009 72.8766 79.5549 73.4796C80.9787 74.2198 83.8171 73.1872 85.2967 71.3963C85.8923 70.6744 86.5437 69.4318 86.795 68.5363C86.9439 67.9789 86.9904 67.5403 86.9997 66.5443C87.009 64.7351 86.7764 63.7026 85.9761 62.0395C84.5709 59.0882 81.9931 56.9043 79.071 56.1642C78.6894 56.0728 78.2614 55.9906 78.1311 55.9906H77.8891L77.8798 54.6382C77.8798 53.4229 77.8519 53.2219 77.6192 52.564C76.6793 49.8593 74.3714 47.9861 71.4493 47.5384C71.1794 47.4927 71.0492 47.4288 71.0492 47.3374C71.0492 47.1089 70.5001 45.8388 70.1465 45.254C68.7506 42.9697 66.4892 41.1239 64.0324 40.2833L63.2135 40L63.2693 40.2467ZM66.6381 45.2266C67.82 46.4419 68.4249 47.9587 68.3318 49.4481C68.248 50.7 67.6059 51.5132 66.1635 52.1985C64.4791 53.0026 61.1568 53.7793 57.6112 54.2087C56.0385 54.4006 56.1223 54.4189 56.1874 53.9803C56.2619 53.4229 56.7365 52.5183 57.1925 52.0797C57.816 51.4675 58.4395 51.1751 59.7982 50.837C60.4868 50.6634 61.3057 50.4258 61.6221 50.2979C63.5485 49.5304 64.9816 47.8399 65.8378 45.3637C65.9588 45.0256 66.0797 44.7515 66.1077 44.7515C66.1449 44.7515 66.3775 44.9708 66.6381 45.2266ZM72.5847 50.7913C73.6828 51.3213 74.4738 52.1985 74.8646 53.3498C75.0322 53.8341 75.0601 54.09 75.0322 54.8027C75.0042 55.5794 74.967 55.7347 74.6785 56.2464C74.2504 57.0414 73.5432 57.6444 72.3985 58.1835C69.0111 59.7917 61.8455 61.0801 54.1587 61.473C53.135 61.5187 51.9066 61.5918 51.4413 61.6192L50.5759 61.6741V61.4456C50.5759 61.1075 50.9202 60.2121 51.2273 59.746C51.8043 58.8506 52.8 58.1561 54.0377 57.7724C54.4472 57.6444 55.657 57.4343 56.8761 57.2698C60.6822 56.7581 62.8505 56.3561 64.9909 55.753C68.8809 54.6656 70.435 53.3772 71.2911 50.5172C71.347 50.3436 71.896 50.4624 72.5847 50.7913ZM78.6801 59.0242C80.9787 59.7186 82.9795 61.7015 83.7985 64.1046C84.059 64.863 84.1149 65.1554 84.1521 66.1331C84.2172 67.8967 83.8729 68.8926 82.8306 69.916C81.8349 70.8846 80.6437 71.1861 79.7038 70.711C78.28 69.9709 77.4424 69.9709 75.9162 70.711C75.088 71.1039 74.7064 71.0856 73.6456 70.6013C72.8266 70.2267 72.7149 70.1993 71.9798 70.1993C71.2353 70.1993 71.1422 70.2267 70.314 70.6105C69.7091 70.8937 69.3182 71.0217 69.0484 71.0217C68.7785 71.0217 68.3876 70.8937 67.7827 70.6105C66.9545 70.2176 66.8614 70.1993 66.117 70.1993C65.3818 70.2084 65.2701 70.2267 64.4419 70.6105C63.3065 71.1313 63.0087 71.1405 61.892 70.6196C60.5426 69.9983 59.7888 70.0074 58.4022 70.6836C57.4809 71.1222 57.0808 71.1222 56.1409 70.6744C54.745 70.0166 53.9633 69.9983 52.6976 70.5831C52.0555 70.8755 51.8415 70.9303 51.3203 70.9303C50.8085 70.9303 50.6224 70.8755 50.1106 70.6105C49.3475 70.2084 48.5564 69.4318 48.2121 68.7464C47.9795 68.2987 47.9236 68.0611 47.8957 67.4032C47.8585 66.6631 47.8771 66.5443 48.1004 66.0966C48.5192 65.2468 49.2265 64.8356 50.5293 64.6711C50.8923 64.6255 52.5674 64.4975 54.2517 64.397C63.2786 63.8396 70.0534 62.5878 73.9806 60.742C74.9019 60.3126 76.1768 59.4536 76.6328 58.9694C76.8468 58.7318 76.8934 58.7227 77.4703 58.7866C77.8054 58.814 78.3451 58.9237 78.6801 59.0242Z" fill="#652807"/>
<path d="M48.482 75.0422C48.026 75.1975 47.6445 75.6087 47.5142 76.0564C47.3932 76.495 47.3374 76.2757 49.7011 85.5411C50.9016 90.2469 51.7019 93.244 51.8694 93.5912C52.2603 94.4136 53.0513 95.2085 53.9074 95.6197L54.6147 95.9669L65.5958 95.9944C72.3799 96.0126 76.8096 95.9852 77.1725 95.9304C78.4382 95.7385 79.6293 94.8796 80.2249 93.71C80.653 92.8785 84.7849 76.7235 84.6918 76.2392C84.4313 74.8868 82.5049 74.5031 81.7046 75.6361C81.444 76.0107 81.4533 75.9468 80.7647 79.7936C80.4204 81.7308 79.1547 88.0539 78.4475 91.3982C78.1683 92.6866 77.7867 93.1526 76.8468 93.3719C76.6049 93.4176 76.5397 93.4085 76.5397 93.2988C76.5397 93.0887 77.2377 88.7849 77.7588 85.7787C78.9593 78.8799 79.3315 76.495 79.2757 76.23C79.1268 75.499 78.373 74.9051 77.6006 74.9051C76.8375 74.9142 76.0837 75.4716 75.8976 76.1661C75.8511 76.3488 75.7673 76.9336 75.7115 77.4636C75.4695 79.8942 75.0322 83.9512 74.8646 85.2761C74.7623 86.0802 74.5762 87.6427 74.4459 88.7484C74.1667 91.115 73.9433 92.8694 73.8782 93.1526C73.841 93.3536 73.7944 93.3628 73.0314 93.3628H72.231L72.2962 92.4216C72.3613 91.3708 72.7149 87.5148 73.05 84.0426C73.1709 82.7633 73.385 80.5064 73.5246 79.0352L73.7665 76.358L73.5246 75.8828C73.2454 75.3346 73.0034 75.1335 72.4265 74.9873C71.6448 74.7772 70.9003 75.097 70.5001 75.8097C70.2861 76.1935 70.2768 76.2849 70.1186 80.7805C70.0255 83.3024 69.9045 86.8021 69.8487 88.5656C69.7835 90.32 69.7184 92.1201 69.6812 92.5587L69.6253 93.3628H68.7878H67.9503L68.0154 88.8123C68.0433 86.3178 68.0991 82.5257 68.1271 80.3876L68.1922 76.5042L67.9782 76.0656C67.7548 75.5996 67.3547 75.2249 66.8894 75.0239C66.4613 74.8503 65.6703 74.8777 65.2236 75.0787C64.7769 75.2797 64.293 75.828 64.1534 76.2757C64.0882 76.495 64.0789 79.1906 64.1348 84.6822C64.172 89.1321 64.1906 92.9059 64.172 93.0612L64.1441 93.3628H63.3717H62.59L62.5434 92.9699C62.469 92.449 62.2084 84.9106 61.9851 77.4179C61.9478 76.029 61.799 75.6087 61.1848 75.2158C60.4403 74.7315 59.3328 74.8868 58.8675 75.5265C58.4115 76.1752 58.4209 76.5499 58.9606 82.2608C59.1095 83.869 59.3235 86.0437 59.4166 87.1036C59.6493 89.4885 59.8819 92.4582 59.8819 92.9699V93.3628H59.1002H58.3185L58.2161 92.7871C58.1696 92.4764 58.0114 91.2977 57.8811 90.1647C57.7508 89.0316 57.5182 87.0762 57.3693 85.8244C57.2204 84.5634 57.0249 82.8821 56.9505 82.078C56.8667 81.2739 56.7178 79.748 56.6155 78.6972C56.5131 77.6372 56.3828 76.5773 56.327 76.3306C56.1502 75.5539 55.3592 74.9051 54.5775 74.9051C53.8423 74.9051 53.0606 75.5082 52.9396 76.1569C52.8651 76.5499 52.8465 76.4585 54.1587 84.2253C55.3219 91.1515 55.6011 92.8602 55.6011 93.1526C55.6011 93.4359 55.3126 93.4267 54.8194 93.1435C54.4099 92.9059 54.1215 92.5678 53.9446 92.1292C53.7585 91.6632 51.4599 80.2779 50.9481 77.29C50.8364 76.6686 50.6968 76.0473 50.6224 75.9102C50.4083 75.499 49.9244 75.1061 49.5057 75.0056C49.0031 74.8777 48.938 74.8868 48.482 75.0422Z" fill="#652807"/>
<defs>
<filter id="filter0_d_229_23" x="0" y="0" width="138" height="138" filterUnits="userSpaceOnUse" color-interpolation-filters="sRGB">
<feFlood flood-opacity="0" result="BackgroundImageFix"/>
<feColorMatrix in="SourceAlpha" type="matrix" values="0 0 0 0 0 0 0 0 0 0 0 0 0 0 0 0 0 0 127 0" result="hardAlpha"/>
<feOffset dx="3" dy="1"/>
<feGaussianBlur stdDeviation="2"/>
<feComposite in2="hardAlpha" operator="out"/>
<feColorMatrix type="matrix" values="0 0 0 0 0 0 0 0 0 0 0 0 0 0 0 0 0 0 0.25 0"/>
<feBlend mode="normal" in2="BackgroundImageFix" result="effect1_dropShadow_229_23"/>
<feBlend mode="normal" in="SourceGraphic" in2="effect1_dropShadow_229_23" result="shape"/>
</filter>
</defs>
</svg>
