<svg width="42" height="56" viewBox="0 0 42 56" fill="none" xmlns="http://www.w3.org/2000/svg">
<path d="M18.2693 0.246712C18.8277 2.76865 18.2414 5.28145 16.7338 6.76172C16.1568 7.32824 15.4217 7.70288 14.398 7.94959C12.4996 8.42474 11.5131 8.8542 10.629 9.62174C9.16799 10.8736 8.44212 12.299 8.22808 14.3458L8.16294 14.9397L7.61388 15.1499C5.55724 15.9357 3.77979 17.6901 3.01669 19.6729C2.77474 20.3034 2.50486 21.5827 2.50486 22.0761C2.50486 22.2588 2.44902 22.4142 2.35596 22.4599C2.27221 22.5056 1.9465 22.798 1.62079 23.1086C0.932139 23.7848 0.45753 24.598 0.169043 25.6306C0.00153363 26.2611 -0.0263845 26.5078 0.0201457 27.4124C0.0945941 28.8287 0.429612 29.8064 1.23924 30.9212C2.42111 32.5476 4.55219 33.7172 6.34826 33.7172C6.96246 33.7172 7.09274 33.6807 7.89306 33.2878C8.68408 32.8949 8.84228 32.8492 9.38203 32.8583C9.94039 32.8583 10.08 32.904 10.8338 33.3152C11.5969 33.7172 11.7272 33.7629 12.2762 33.7629C12.7787 33.7629 12.9835 33.7172 13.3929 33.4979C14.5934 32.8674 14.6306 32.8583 15.2541 32.8583C15.8125 32.8583 15.9428 32.8949 16.6966 33.306C17.4597 33.7081 17.59 33.7538 18.139 33.7538C18.5764 33.7538 18.8556 33.6989 19.1162 33.571C19.3209 33.4705 19.7211 33.2603 20.0002 33.1233C20.4097 32.9131 20.633 32.8583 21.117 32.8583C21.666 32.8583 21.8056 32.8949 22.5966 33.306C23.369 33.7081 23.5365 33.7629 24.0391 33.7629C24.5323 33.7629 24.7277 33.7081 25.528 33.306C26.3563 32.904 26.5238 32.8492 27.0263 32.8583C27.5288 32.8583 27.6963 32.9131 28.4315 33.306C29.1481 33.6898 29.3249 33.7538 29.8181 33.7538C30.3113 33.7629 30.4881 33.7081 31.2885 33.3152C32.0981 32.9131 32.2749 32.8583 32.7774 32.8583C33.3544 32.8674 33.4009 32.8766 34.5549 33.4796C35.9787 34.2198 38.8171 33.1872 40.2967 31.3963C40.8923 30.6744 41.5437 29.4318 41.795 28.5363C41.9439 27.9789 41.9904 27.5403 41.9997 26.5443C42.009 24.7351 41.7764 23.7026 40.9761 22.0395C39.5709 19.0882 36.9931 16.9043 34.071 16.1642C33.6894 16.0728 33.2614 15.9906 33.1311 15.9906H32.8891L32.8798 14.6382C32.8798 13.4229 32.8519 13.2219 32.6192 12.564C31.6793 9.85932 29.3714 7.98614 26.4493 7.5384C26.1794 7.49272 26.0492 7.42875 26.0492 7.33738C26.0492 7.10894 25.5001 5.83884 25.1465 5.25404C23.7506 2.96968 21.4892 1.12391 19.0324 0.28326L18.2135 0L18.2693 0.246712ZM21.6381 5.22663C22.82 6.44191 23.4249 7.95873 23.3318 9.44813C23.248 10.7 22.6059 11.5132 21.1635 12.1985C19.4791 13.0026 16.1568 13.7793 12.6112 14.2087C11.0385 14.4006 11.1223 14.4189 11.1874 13.9803C11.2619 13.4229 11.7365 12.5183 12.1925 12.0797C12.816 11.4675 13.4395 11.1751 14.7982 10.837C15.4868 10.6634 16.3057 10.4258 16.6221 10.2979C18.5485 9.53037 19.9816 7.83994 20.8378 5.36369C20.9588 5.0256 21.0797 4.75148 21.1077 4.75148C21.1449 4.75148 21.3775 4.97078 21.6381 5.22663ZM27.5847 10.7913C28.6828 11.3213 29.4738 12.1985 29.8646 13.3498C30.0322 13.8341 30.0601 14.09 30.0322 14.8027C30.0042 15.5794 29.967 15.7347 29.6785 16.2464C29.2504 17.0414 28.5432 17.6444 27.3985 18.1835C24.0111 19.7917 16.8455 21.0801 9.15869 21.473C8.13502 21.5187 6.90662 21.5918 6.44132 21.6192L5.57586 21.6741V21.4456C5.57586 21.1075 5.92018 20.2121 6.22728 19.746C6.80426 18.8506 7.8 18.1561 9.03771 17.7724C9.44717 17.6444 10.657 17.4343 11.8761 17.2698C15.6822 16.7581 17.8505 16.3561 19.9909 15.753C23.8809 14.6656 25.435 13.3772 26.2911 10.5172C26.347 10.3436 26.896 10.4624 27.5847 10.7913ZM33.6801 19.0242C35.9787 19.7186 37.9795 21.7015 38.7985 24.1046C39.059 24.863 39.1149 25.1554 39.1521 26.1331C39.2172 27.8967 38.8729 28.8926 37.8306 29.916C36.8349 30.8846 35.6437 31.1861 34.7038 30.711C33.28 29.9709 32.4424 29.9709 30.9162 30.711C30.088 31.1039 29.7064 31.0856 28.6456 30.6013C27.8266 30.2267 27.7149 30.1993 26.9798 30.1993C26.2353 30.1993 26.1422 30.2267 25.314 30.6105C24.7091 30.8937 24.3182 31.0217 24.0484 31.0217C23.7785 31.0217 23.3876 30.8937 22.7827 30.6105C21.9545 30.2176 21.8614 30.1993 21.117 30.1993C20.3818 30.2084 20.2701 30.2267 19.4419 30.6105C18.3065 31.1313 18.0087 31.1405 16.892 30.6196C15.5426 29.9983 14.7888 30.0074 13.4022 30.6836C12.4809 31.1222 12.0808 31.1222 11.1409 30.6744C9.74497 30.0166 8.96326 29.9983 7.69764 30.5831C7.05552 30.8755 6.84148 30.9303 6.32034 30.9303C5.80851 30.9303 5.62239 30.8755 5.11055 30.6105C4.34746 30.2084 3.55644 29.4318 3.21212 28.7464C2.97947 28.2987 2.92363 28.0611 2.89571 27.4032C2.85849 26.6631 2.8771 26.5443 3.10045 26.0966C3.51922 25.2468 4.22648 24.8356 5.52933 24.6711C5.89226 24.6255 7.56735 24.4975 9.25175 24.397C18.2786 23.8396 25.0534 22.5878 28.9806 20.742C29.9019 20.3126 31.1768 19.4536 31.6328 18.9694C31.8468 18.7318 31.8934 18.7227 32.4703 18.7866C32.8054 18.814 33.3451 18.9237 33.6801 19.0242Z" fill="#652807"/>
<path d="M3.482 35.0422C3.026 35.1975 2.64445 35.6087 2.51417 36.0564C2.39319 36.495 2.33735 36.2757 4.70109 45.5411C5.90157 50.2469 6.70189 53.244 6.8694 53.5912C7.26025 54.4136 8.05127 55.2085 8.90742 55.6197L9.61468 55.9669L20.5958 55.9944C27.3799 56.0126 31.8096 55.9852 32.1725 55.9304C33.4382 55.7385 34.6293 54.8796 35.2249 53.71C35.653 52.8785 39.7849 36.7235 39.6918 36.2392C39.4313 34.8868 37.5049 34.5031 36.7046 35.6361C36.444 36.0107 36.4533 35.9468 35.7647 39.7936C35.4204 41.7308 34.1547 48.0539 33.4475 51.3982C33.1683 52.6866 32.7867 53.1526 31.8468 53.3719C31.6049 53.4176 31.5397 53.4085 31.5397 53.2988C31.5397 53.0887 32.2377 48.7849 32.7588 45.7787C33.9593 38.8799 34.3315 36.495 34.2757 36.23C34.1268 35.499 33.373 34.9051 32.6006 34.9051C31.8375 34.9142 31.0837 35.4716 30.8976 36.1661C30.8511 36.3488 30.7673 36.9336 30.7115 37.4636C30.4695 39.8942 30.0322 43.9512 29.8646 45.2761C29.7623 46.0802 29.5762 47.6427 29.4459 48.7484C29.1667 51.115 28.9433 52.8694 28.8782 53.1526C28.841 53.3536 28.7944 53.3628 28.0314 53.3628H27.231L27.2962 52.4216C27.3613 51.3708 27.7149 47.5148 28.05 44.0426C28.1709 42.7633 28.385 40.5064 28.5246 39.0352L28.7665 36.358L28.5246 35.8828C28.2454 35.3346 28.0034 35.1335 27.4265 34.9873C26.6448 34.7772 25.9003 35.097 25.5001 35.8097C25.2861 36.1935 25.2768 36.2849 25.1186 40.7805C25.0255 43.3024 24.9045 46.8021 24.8487 48.5656C24.7835 50.32 24.7184 52.1201 24.6812 52.5587L24.6253 53.3628H23.7878H22.9503L23.0154 48.8123C23.0433 46.3178 23.0991 42.5257 23.1271 40.3876L23.1922 36.5042L22.9782 36.0656C22.7548 35.5996 22.3547 35.2249 21.8894 35.0239C21.4613 34.8503 20.6703 34.8777 20.2236 35.0787C19.7769 35.2797 19.293 35.828 19.1534 36.2757C19.0882 36.495 19.0789 39.1906 19.1348 44.6822C19.172 49.1321 19.1906 52.9059 19.172 53.0612L19.1441 53.3628H18.3717H17.59L17.5434 52.9699C17.469 52.449 17.2084 44.9106 16.9851 37.4179C16.9478 36.029 16.799 35.6087 16.1848 35.2158C15.4403 34.7315 14.3328 34.8868 13.8675 35.5265C13.4115 36.1752 13.4209 36.5499 13.9606 42.2608C14.1095 43.869 14.3235 46.0437 14.4166 47.1036C14.6493 49.4885 14.8819 52.4582 14.8819 52.9699V53.3628H14.1002H13.3185L13.2161 52.7871C13.1696 52.4764 13.0114 51.2977 12.8811 50.1647C12.7508 49.0316 12.5182 47.0762 12.3693 45.8244C12.2204 44.5634 12.0249 42.8821 11.9505 42.078C11.8667 41.2739 11.7178 39.748 11.6155 38.6972C11.5131 37.6372 11.3828 36.5773 11.327 36.3306C11.1502 35.5539 10.3592 34.9051 9.57746 34.9051C8.84228 34.9051 8.06057 35.5082 7.93959 36.1569C7.86514 36.5499 7.84653 36.4585 9.15869 44.2253C10.3219 51.1515 10.6011 52.8602 10.6011 53.1526C10.6011 53.4359 10.3126 53.4267 9.81942 53.1435C9.40995 52.9059 9.12146 52.5678 8.94465 52.1292C8.75853 51.6632 6.45993 40.2779 5.9481 37.29C5.83643 36.6686 5.69684 36.0473 5.62239 35.9102C5.40835 35.499 4.92443 35.1061 4.50566 35.0056C4.00313 34.8777 3.93799 34.8868 3.482 35.0422Z" fill="#652807"/>
</svg>
