<svg width="40" height="40" viewBox="0 0 40 40" fill="none" xmlns="http://www.w3.org/2000/svg">
<path d="M11.6666 36.6667C10.75 36.6667 9.96524 36.3403 9.31246 35.6875C8.65968 35.0347 8.33329 34.25 8.33329 33.3333C8.33329 32.4167 8.65968 31.632 9.31246 30.9792C9.96524 30.3264 10.75 30 11.6666 30C12.5833 30 13.368 30.3264 14.0208 30.9792C14.6736 31.632 15 32.4167 15 33.3333C15 34.25 14.6736 35.0347 14.0208 35.6875C13.368 36.3403 12.5833 36.6667 11.6666 36.6667ZM28.3333 36.6667C27.4166 36.6667 26.6319 36.3403 25.9791 35.6875C25.3263 35.0347 25 34.25 25 33.3333C25 32.4167 25.3263 31.632 25.9791 30.9792C26.6319 30.3264 27.4166 30 28.3333 30C29.25 30 30.0347 30.3264 30.6875 30.9792C31.3402 31.632 31.6666 32.4167 31.6666 33.3333C31.6666 34.25 31.3402 35.0347 30.6875 35.6875C30.0347 36.3403 29.25 36.6667 28.3333 36.6667ZM10.25 10L14.25 18.3333H25.9166L30.5 10H10.25ZM8.66663 6.66668H33.25C33.8888 6.66668 34.375 6.9514 34.7083 7.52084C35.0416 8.09029 35.0555 8.66668 34.75 9.25001L28.8333 19.9167C28.5277 20.4722 28.118 20.9028 27.6041 21.2083C27.0902 21.5139 26.5277 21.6667 25.9166 21.6667H13.5L11.6666 25H31.6666V28.3333H11.6666C10.4166 28.3333 9.47218 27.7847 8.83329 26.6875C8.1944 25.5903 8.16663 24.5 8.74996 23.4167L11 19.3333L4.99996 6.66668H1.66663V3.33334H7.08329L8.66663 6.66668Z" fill="#FFE5D2"/>
</svg>
